<svg width="295" height="118" viewBox="0 0 295 118" fill="none" xmlns="http://www.w3.org/2000/svg">
<path d="M226.686 26.2021C232.488 26.2021 236.883 27.2254 239.87 29.2734C242.857 31.3214 245.032 33.4552 246.397 35.6738H248.702V27.9941H264.574V102.746C264.574 107.098 263.293 110.554 260.733 113.114C258.174 115.759 254.76 117.082 250.494 117.082H207.998V103.002H244.862C247.251 103.002 248.446 101.722 248.446 99.1621V82.6504H246.142C245.288 84.0156 244.093 85.4235 242.558 86.874C241.022 88.2393 238.974 89.3915 236.414 90.3301C233.854 91.2687 230.611 91.7383 226.686 91.7383C221.48 91.7382 216.659 90.501 212.222 88.0264C207.87 85.4664 204.371 81.8388 201.726 77.1455C199.08 72.367 197.758 66.6499 197.758 59.9941V57.9463C197.758 51.2903 199.08 45.6152 201.726 40.9219C204.371 36.1433 207.87 32.5167 212.222 30.042C216.659 27.482 221.48 26.2022 226.686 26.2021ZM91.5889 26.2021C97.9033 26.2022 103.578 27.4821 108.612 30.042C113.647 32.602 117.615 36.3138 120.517 41.1777C123.418 46.0417 124.868 51.8872 124.868 58.7139V60.7617C124.868 67.5884 123.418 73.4339 120.517 78.2979C117.615 83.1619 113.647 86.8736 108.612 89.4336C103.578 91.9935 97.9034 93.2734 91.5889 93.2734C85.2742 93.2734 79.5991 91.9936 74.5645 89.4336C69.5299 86.8736 65.5614 83.1618 62.6602 78.2979C59.7589 73.4339 58.3086 67.5883 58.3086 60.7617V58.7139C58.3086 51.8872 59.7589 46.0417 62.6602 41.1777C65.5615 36.3138 69.5299 32.602 74.5645 30.042C79.5991 27.482 85.2742 26.2021 91.5889 26.2021ZM162.027 26.2021C168.257 26.2022 173.675 27.6098 178.283 30.4258C182.891 33.1564 186.475 36.997 189.035 41.9463C191.595 46.8102 192.875 52.4846 192.875 58.9697V64.4736H146.667C146.838 68.8256 148.459 72.367 151.531 75.0977C154.603 77.8283 158.358 79.1943 162.795 79.1943C167.318 79.1943 170.646 78.2127 172.779 76.25C174.913 74.2873 176.534 72.111 177.644 69.7217L190.827 76.6338C189.632 78.8524 187.883 81.2844 185.579 83.9297C183.36 86.4897 180.374 88.7086 176.619 90.5859C172.864 92.3779 168.086 93.2734 162.283 93.2734C155.969 93.2734 150.38 91.9509 145.516 89.3057C140.737 86.575 136.982 82.7781 134.251 77.9141C131.606 72.9647 130.283 67.1619 130.283 60.5059V58.9697C130.283 52.3138 131.606 46.5534 134.251 41.6895C136.896 36.7402 140.609 32.9431 145.388 30.2979C150.166 27.5673 155.713 26.2021 162.027 26.2021ZM52.832 47.1943L18.0156 76.1221V78.1699H53.8555V91.4814H0.351562V72.2822L35.168 43.3535V41.3057H1.63184V27.9941H52.832V47.1943ZM292.183 91.4814H276.055V27.9941H292.183V91.4814ZM91.5889 40.5381C86.6395 40.5381 82.5434 42.1597 79.3008 45.4023C76.0582 48.5596 74.4366 53.1245 74.4365 59.0977V60.3779C74.4365 66.3513 76.0581 70.9595 79.3008 74.2021C82.5434 77.3593 86.6396 78.9375 91.5889 78.9375C96.5381 78.9374 100.634 77.3594 103.877 74.2021C107.12 70.9595 108.74 66.3512 108.74 60.3779V59.0977C108.74 53.3111 107.219 48.846 104.176 45.7021L103.578 45.1025C100.463 42.0594 96.4661 40.5381 91.5889 40.5381ZM231.294 40.2822C226.345 40.2822 222.206 41.8604 218.878 45.0176C215.55 48.0896 213.886 52.5274 213.886 58.3301V59.6104C213.886 65.3275 215.55 69.7646 218.878 72.9219C222.206 76.0792 226.345 77.6582 231.294 77.6582C236.243 77.6582 240.382 76.0792 243.71 72.9219C247.038 69.7646 248.702 65.3274 248.702 59.6104V58.3301C248.702 52.5274 247.038 48.0896 243.71 45.0176C240.467 41.8603 236.329 40.2823 231.294 40.2822ZM161.899 40.2822C157.547 40.2822 154.091 41.3917 151.531 43.6104C148.971 45.829 147.392 48.7731 146.795 52.4424H176.491C176.15 48.773 174.656 45.829 172.011 43.6104C169.451 41.3917 166.081 40.2823 161.899 40.2822ZM284.119 0.0898438C287.106 0.0898821 289.58 1.02895 291.543 2.90625C293.506 4.78356 294.487 7.25818 294.487 10.3301C294.487 13.402 293.506 15.8766 291.543 17.7539C289.58 19.6312 287.106 20.5703 284.119 20.5703C281.218 20.5703 278.743 19.6311 276.695 17.7539C274.733 15.8766 273.751 13.402 273.751 10.3301C273.751 7.25809 274.733 4.78358 276.695 2.90625C278.743 1.02892 281.218 0.0898438 284.119 0.0898438Z" fill="#FAFAFA"/>
<rect y="103" width="36.6" height="14.08" fill="#74CCAA"/>
<rect x="41.5996" y="103" width="36.6" height="14.08" fill="#77B9C0"/>
<rect x="83.2002" y="103" width="36.6" height="14.08" fill="#A0A5D6"/>
<rect x="124.8" y="103" width="36.6" height="14.08" fill="#ED9CC2"/>
<rect x="166.4" y="103" width="36.6" height="14.08" fill="#FF8787"/>
<path d="M292 117.08H263.833C264 116.921 264.165 116.758 264.327 116.591L264.326 116.59C267.91 112.973 269.521 108.261 269.571 103H292V117.08Z" fill="#F6C177"/>
</svg>
